<?xml version="1.0" standalone="no"?>
<!DOCTYPE svg PUBLIC "-//W3C//DTD SVG 20010904//EN"
 "http://www.w3.org/TR/2001/REC-SVG-20010904/DTD/svg10.dtd">
<svg version="1.0" xmlns="http://www.w3.org/2000/svg"
 width="1920.000000pt" height="1920.000000pt" viewBox="0 0 1920.000000 1920.000000"
 preserveAspectRatio="xMidYMid meet">

<g transform="translate(0.000000,1920.000000) scale(0.100000,-0.100000)"
fill="#000000" stroke="none">
<path d="M0 9600 l0 -9600 9600 0 9600 0 0 9600 0 9600 -9600 0 -9600 0 0
-9600z m14400 6240 l0 -960 -4800 0 -4800 0 0 960 0 960 4800 0 4800 0 0 -960z
m-960 -1512 c0 -103 -17 -323 -35 -453 -155 -1109 -780 -2091 -1715 -2697
-137 -89 -251 -153 -420 -238 -168 -84 -270 -153 -362 -247 -107 -108 -159
-180 -223 -308 -106 -215 -125 -331 -125 -785 0 -454 19 -570 125 -785 64
-128 116 -200 223 -308 92 -94 194 -163 362 -247 647 -323 1139 -752 1524
-1330 325 -486 529 -1025 611 -1605 18 -130 35 -350 35 -452 l0 -73 -3840 0
-3840 0 0 73 c0 174 30 455 71 667 166 856 634 1646 1307 2208 242 203 469
348 827 531 158 80 239 138 338 238 97 99 150 173 212 298 106 215 125 331
125 785 0 454 -19 570 -125 785 -64 128 -116 200 -223 308 -92 94 -194 163
-362 247 -648 323 -1141 754 -1524 1330 -330 496 -529 1018 -611 1605 -18 130
-35 350 -35 453 l0 72 3840 0 3840 0 0 -72z m960 -10968 l0 -960 -4800 0
-4800 0 0 960 0 960 4800 0 4800 0 0 -960z"/>
</g>
</svg>
